HIERARCHY
ROOT hips_JNT
{
    OFFSET 0 0 0
    CHANNELS 6 Xposition Yposition Zposition Zrotation Xrotation Yrotation
    JOINT spine_JNT
    {
        OFFSET -0.000424254 9.31981 2.54342
        CHANNELS 3 Zrotation Xrotation Yrotation
        JOINT spine1_JNT
        {
            OFFSET 0 10.8731 -4.54485e-05
            CHANNELS 3 Zrotation Xrotation Yrotation
            JOINT spine2_JNT
            {
                OFFSET 0 12.4264 -5.95116
                CHANNELS 3 Zrotation Xrotation Yrotation
                JOINT neck_JNT
                {
                    OFFSET 0 13.9797 -1.46048
                    CHANNELS 3 Zrotation Xrotation Yrotation
                    JOINT head_JNT
                    {
                        OFFSET 0 5.8702 2.0915
                        CHANNELS 3 Zrotation Xrotation Yrotation
                        End Site
                        {
                            OFFSET 0 0 0
                        }
                    }
                }
                JOINT l_shoulder_JNT
                {
                    OFFSET 4.39914 12.861 -1.48501
                    CHANNELS 3 Zrotation Xrotation Yrotation
                    JOINT l_arm_JNT
                    {
                        OFFSET 8.75735 -2.31198 -0.0490516
                        CHANNELS 3 Zrotation Xrotation Yrotation
                        JOINT l_forearm_JNT
                        {
                            OFFSET 26.9001 -4.76837e-05 1.2666e-05
                            CHANNELS 3 Zrotation Xrotation Yrotation
                            JOINT l_hand_JNT
                            {
                                OFFSET 23.0148 -4.76837e-05 -3.72529e-06
                                CHANNELS 3 Zrotation Xrotation Yrotation
                                JOINT l_handThumb1_JNT
                                {
                                    OFFSET 3.63 -0.779998 2.13
                                    CHANNELS 3 Zrotation Xrotation Yrotation
                                    JOINT l_handThumb2_JNT
                                    {
                                        OFFSET 3.55114 -2.11837 2.24006
                                        CHANNELS 3 Zrotation Xrotation Yrotation
                                        JOINT l_handThumb3_JNT
                                        {
                                            OFFSET 2.15911 -1.11631 0.963467
                                            CHANNELS 3 Zrotation Xrotation Yrotation
                                            End Site
                                            {
                                                OFFSET 0 0 0
                                            }
                                        }
                                    }
                                }
                                JOINT l_handIndex1_JNT
                                {
                                    OFFSET 10.5149 -0.0410199 2.19757
                                    CHANNELS 3 Zrotation Xrotation Yrotation
                                    JOINT l_handIndex2_JNT
                                    {
                                        OFFSET 2.75183 -0.102866 -0.139054
                                        CHANNELS 3 Zrotation Xrotation Yrotation
                                        JOINT l_handIndex3_JNT
                                        {
                                            OFFSET 2.35301 -0.0733972 -0.0904871
                                            CHANNELS 3 Zrotation Xrotation Yrotation
                                            End Site
                                            {
                                                OFFSET 0 0 0
                                            }
                                        }
                                    }
                                }
                                JOINT l_handMiddle1_JNT
                                {
                                    OFFSET 10.0671 0.139201 0.0595726
                                    CHANNELS 3 Zrotation Xrotation Yrotation
                                    JOINT l_handMiddle2_JNT
                                    {
                                        OFFSET 3.90903 -0.288403 -0.119066
                                        CHANNELS 3 Zrotation Xrotation Yrotation
                                        JOINT l_handMiddle3_JNT
                                        {
                                            OFFSET 2.3284 -0.0191092 -0.0594396
                                            CHANNELS 3 Zrotation Xrotation Yrotation
                                            End Site
                                            {
                                                OFFSET 0 0 0
                                            }
                                        }
                                    }
                                }
                                JOINT l_handRing1_JNT
                                {
                                    OFFSET 9.46811 0.132239 -1.80983
                                    CHANNELS 3 Zrotation Xrotation Yrotation
                                    JOINT l_handRing2_JNT
                                    {
                                        OFFSET 3.28153 -0.224054 -0.0339366
                                        CHANNELS 3 Zrotation Xrotation Yrotation
                                        JOINT l_handRing3_JNT
                                        {
                                            OFFSET 2.245 -0.0702143 -0.00838935
                                            CHANNELS 3 Zrotation Xrotation Yrotation
                                            End Site
                                            {
                                                OFFSET 0 0 0
                                            }
                                        }
                                    }
                                }
                                JOINT l_handPinky1_JNT
                                {
                                    OFFSET 8.49077 -0.0777721 -3.58415
                                    CHANNELS 3 Zrotation Xrotation Yrotation
                                    JOINT l_handPinky2_JNT
                                    {
                                        OFFSET 2.53217 -0.0730753 -0.0170402
                                        CHANNELS 3 Zrotation Xrotation Yrotation
                                        JOINT l_handPinky3_JNT
                                        {
                                            OFFSET 1.95121 0.0251174 0.0170089
                                            CHANNELS 3 Zrotation Xrotation Yrotation
                                            End Site
                                            {
                                                OFFSET 0 0 0
                                            }
                                        }
                                    }
                                }
                            }
                        }
                    }
                }
                JOINT r_shoulder_JNT
                {
                    OFFSET -4.39782 12.8606 -1.48501
                    CHANNELS 3 Zrotation Xrotation Yrotation
                    JOINT r_arm_JNT
                    {
                        OFFSET -8.75732 -2.312 -0.0490502
                        CHANNELS 3 Zrotation Xrotation Yrotation
                        JOINT r_forearm_JNT
                        {
                            OFFSET -26.9 0 1.00583e-05
                            CHANNELS 3 Zrotation Xrotation Yrotation
                            JOINT r_hand_JNT
                            {
                                OFFSET -23.0149 0 0
                                CHANNELS 3 Zrotation Xrotation Yrotation
                                JOINT r_handThumb1_JNT
                                {
                                    OFFSET -3.63 -0.779998 2.13
                                    CHANNELS 3 Zrotation Xrotation Yrotation
                                    JOINT r_handThumb2_JNT
                                    {
                                        OFFSET -3.5512 -2.118 2.24006
                                        CHANNELS 3 Zrotation Xrotation Yrotation
                                        JOINT r_handThumb3_JNT
                                        {
                                            OFFSET -2.1591 -1.116 0.963467
                                            CHANNELS 3 Zrotation Xrotation Yrotation
                                            End Site
                                            {
                                                OFFSET 0 0 0
                                            }
                                        }
                                    }
                                }
                                JOINT r_handIndex1_JNT
                                {
                                    OFFSET -10.5149 -0.0409961 2.19756
                                    CHANNELS 3 Zrotation Xrotation Yrotation
                                    JOINT r_handIndex2_JNT
                                    {
                                        OFFSET -2.7518 -0.102997 -0.13905
                                        CHANNELS 3 Zrotation Xrotation Yrotation
                                        JOINT r_handIndex3_JNT
                                        {
                                            OFFSET -2.353 -0.0730038 -0.0904899
                                            CHANNELS 3 Zrotation Xrotation Yrotation
                                            End Site
                                            {
                                                OFFSET 0 0 0
                                            }
                                        }
                                    }
                                }
                                JOINT r_handMiddle1_JNT
                                {
                                    OFFSET -10.0671 0.139999 0.05957
                                    CHANNELS 3 Zrotation Xrotation Yrotation
                                    JOINT r_handMiddle2_JNT
                                    {
                                        OFFSET -3.9091 -0.288999 -0.11907
                                        CHANNELS 3 Zrotation Xrotation Yrotation
                                        JOINT r_handMiddle3_JNT
                                        {
                                            OFFSET -2.3284 -0.019002 -0.05944
                                            CHANNELS 3 Zrotation Xrotation Yrotation
                                            End Site
                                            {
                                                OFFSET 0 0 0
                                            }
                                        }
                                    }
                                }
                                JOINT r_handRing1_JNT
                                {
                                    OFFSET -9.4681 0.133002 -1.80983
                                    CHANNELS 3 Zrotation Xrotation Yrotation
                                    JOINT r_handRing2_JNT
                                    {
                                        OFFSET -3.2816 -0.224996 -0.0339396
                                        CHANNELS 3 Zrotation Xrotation Yrotation
                                        JOINT r_handRing3_JNT
                                        {
                                            OFFSET -2.245 -0.0699997 -0.0083901
                                            CHANNELS 3 Zrotation Xrotation Yrotation
                                            End Site
                                            {
                                                OFFSET 0 0 0
                                            }
                                        }
                                    }
                                }
                                JOINT r_handPinky1_JNT
                                {
                                    OFFSET -8.4908 -0.0769973 -3.58415
                                    CHANNELS 3 Zrotation Xrotation Yrotation
                                    JOINT r_handPinky2_JNT
                                    {
                                        OFFSET -2.5322 -0.0740051 -0.0170402
                                        CHANNELS 3 Zrotation Xrotation Yrotation
                                        JOINT r_handPinky3_JNT
                                        {
                                            OFFSET -1.9512 0.0259995 0.0170097
                                            CHANNELS 3 Zrotation Xrotation Yrotation
                                            End Site
                                            {
                                                OFFSET 0 0 0
                                            }
                                        }
                                    }
                                }
                            }
                        }
                    }
                }
            }
        }
    }
    JOINT l_upleg_JNT
    {
        OFFSET 10.0614 -5.18575 -0.706233
        CHANNELS 3 Zrotation Xrotation Yrotation
        JOINT l_leg_JNT
        {
            OFFSET -0.348572 -45.5824 -0.819168
            CHANNELS 3 Zrotation Xrotation Yrotation
            JOINT l_foot_JNT
            {
                OFFSET 0.349145 -42.3325 -1.70849
                CHANNELS 3 Zrotation Xrotation Yrotation
                JOINT l_toebase_JNT
                {
                    OFFSET 0.0702709 -8.12666 12.8887
                    CHANNELS 3 Zrotation Xrotation Yrotation
                    End Site
                    {
                        OFFSET 0 0 0
                    }
                }
            }
        }
    }
    JOINT r_upleg_JNT
    {
        OFFSET -10.061 -5.18577 -0.706233
        CHANNELS 3 Zrotation Xrotation Yrotation
        JOINT r_leg_JNT
        {
            OFFSET 0.34858 -45.5824 -0.819165
            CHANNELS 3 Zrotation Xrotation Yrotation
            JOINT r_foot_JNT
            {
                OFFSET -0.34918 -42.3325 -1.70849
                CHANNELS 3 Zrotation Xrotation Yrotation
                JOINT r_toebase_JNT
                {
                    OFFSET -0.0702001 -8.12666 12.8887
                    CHANNELS 3 Zrotation Xrotation Yrotation
                    End Site
                    {
                        OFFSET 0 0 0
                    }
                }
            }
        }
    }
}
MOTION
Frames: 4
Frame Time: 0.033333
-39.8729 102.597 93.2622 22.1428 9.90512 -19.6053 -1.18827 -0.101057 0.0395647 -5.3347 3.77535 -17.8679 8.53774e-07 1.70755e-06 0 -21.0187 6.92466 15.8568 -9.3909 -7.25824 -0.689835 2.98821e-06 -8.53774e-07 0 -84.2164 30.1159 -37.7416 20.8869 -0.340433 0.0395647 -1.62217e-05 -2.41722e-12 0 4.10661 20.7048 -22.2077 -0 0 0 -17.6048 -0.268403 1.73275 -27.8698 7.98306 1.98418 -35.9789 9.9955 3.25357 -23.8473 6.91562 1.46337 -32.5198 6.13676 1.79051 -41.9096 7.60917 2.91769 -27.8459 5.33702 1.3235 -37.023 -3.44582 -1.15621 -47.6354 -4.22574 -1.86628 -31.7239 -3.00999 -0.855917 -40.7327 -7.43543 -2.76365 -52.5449 -9.02132 -4.46005 -34.8618 -6.52173 -2.04939 2.98821e-06 -8.53774e-07 0 61.1429 -12.5805 -23.5829 38.4999 8.55757 24.1853 8.53774e-07 -3.81667e-14 0 -4.10661 20.7048 22.2077 -0 0 0 16.7837 0.244122 1.65512 26.5541 7.63851 -1.80488 34.269 9.58809 -2.96215 22.7247 6.61059 -1.32999 30.9921 5.87981 -1.63131 39.9335 7.3156 -2.66121 26.5399 5.10662 -1.20462 35.292 -3.30655 1.04903 45.4059 -4.07315 1.70451 30.2414 -2.88324 0.780339 38.813 -7.1451 2.5198 50.0573 -8.71768 4.07634 33.2226 -6.25344 1.86754 -21.2323 -29.5809 -18.6266 6.41816 22.7663 -1.29239 -1.06722e-07 4.26887e-07 0 -9.60495e-07 5.12264e-06 0 -27.477 -22.8585 -11.4295 0.489438 9.33126 0.193827 6.85984 -0.918018 0 0.00224052 -0.803018 0.311533 
-39.9646 102.008 94.3485 21.0128 11.359 -18.5285 0.124294 -0.107463 0 -4.90326 3.86455 -19.6806 -8.53774e-07 -2.13443e-07 0 -21.591 4.97012 16.1308 -8.98956 -7.15863 -0.653717 4.26887e-07 2.56132e-06 0 -82.7979 30.6133 -38.3431 17.8516 -0.615266 0.068528 5.08889e-14 -3.41509e-06 0 4.10661 20.7048 -22.2077 -0 0 0 -17.6555 -0.26994 1.73816 -27.9512 8.00421 1.99441 -36.0846 10.0204 3.27108 -23.9167 6.93438 1.47031 -32.6142 6.1525 1.80141 -42.0318 7.62702 2.93401 -27.9266 5.35116 1.33058 -37.1299 -3.45432 -1.16162 -47.7731 -4.23496 -1.87674 -31.8155 -3.01776 -0.858656 -40.8513 -7.45309 -2.77975 -52.6987 -9.03954 -4.48386 -34.9632 -6.53814 -2.06119 4.26887e-07 2.56132e-06 0 64.7749 -10.998 -19.5712 37.8822 9.74508 27.9005 -0 3.41509e-06 0 -4.10661 20.7048 22.2077 -0 0 0 17.0619 0.252222 1.68279 26.9996 7.7557 -1.86334 34.8478 9.72707 -3.05888 23.1049 6.71422 -1.37342 31.5095 5.96734 -1.68512 40.6027 7.41604 -2.74718 26.9822 5.18498 -1.24551 35.8784 -3.35408 1.08641 46.1612 -4.12555 1.75876 30.7436 -2.9264 0.804051 39.4631 -7.24437 2.60081 50.8996 -8.82239 4.20472 33.7778 -6.34492 1.92776 -21.7861 -31.4208 -27.7551 6.25649 27.1756 -1.51333 -6.4033e-07 -8.11085e-06 0 2.54444e-14 -8.53774e-07 0 -27.4092 -24.6771 -15.8671 0.509209 14.0272 0.39762 6.88394 -3.78446 2.83523 0.00224047 -0.802921 0.306467 
-41.1075 102.144 94.6722 20.303 12.7777 -16.6891 0.739413 -0.0948359 0 -4.30763 3.62724 -19.3672 -4.26887e-07 1.70755e-06 0 -22.3407 4.20035 16.6299 -8.14215 -6.36523 -0.533757 -4.26887e-07 1.70755e-06 0 -83.8826 31.4093 -38.7241 14.243 -0.384865 0.0791294 3.41509e-06 -3.41509e-06 0 4.10661 20.7048 -22.2077 -0 0 0 -17.6833 -0.270784 1.73996 -27.9958 8.0158 2.00108 -36.1426 10.034 3.2816 -23.9547 6.94466 1.47403 -32.666 6.16111 1.80791 -42.0987 7.63679 2.94307 -27.9708 5.35891 1.33586 -37.1885 -3.45898 -1.16296 -47.8486 -4.24001 -1.8809 -31.8657 -3.02201 -0.863201 -40.9164 -7.46276 -2.78734 -52.783 -9.04949 -4.49745 -35.0187 -6.54712 -2.06839 -4.26887e-07 1.70755e-06 0 67.5239 -7.62548 -13.6219 37.4583 10.3161 29.8173 -3.41509e-06 -1.70755e-06 0 -4.10661 20.7048 22.2077 -0 0 0 17.3577 0.260979 1.7091 27.4737 7.87981 -1.92938 35.4639 9.87381 -3.16429 23.5093 6.82411 -1.42159 32.0599 6.05989 -1.74356 41.3147 7.52176 -2.83882 27.4528 5.26798 -1.28571 36.5021 -3.40424 1.12186 46.9644 -4.18049 1.81655 31.2778 -2.97206 0.833681 40.1548 -7.34892 2.68901 51.7959 -8.93169 4.34337 34.3684 -6.44155 1.99363 -22.4081 -32.8502 -33.9167 5.04741 29.8943 -1.34811 1.4941e-06 -1.34975e-13 0.0559529 1.06722e-06 4.26887e-07 0 -25.8996 -24.1123 -15.7011 0.514702 13.1117 0.590827 6.23448 -4.25621 0.688699 0.00224103 -0.802847 0.306467 
-43.3944 102.63 93.8404 20.1221 13.9426 -14.3599 0.345436 -0.076853 0 -3.8535 3.30694 -17.7283 8.53774e-07 3.20165e-06 0 -22.9601 4.78262 17.1486 -6.72044 -5.43855 -0.387653 1.35571e-13 6.61675e-06 0 -86.5757 32.2082 -38.2373 10.8775 -0.1836 0.0395647 4.26887e-06 -6.83019e-06 0 4.10661 20.7048 -22.2077 -0 0 0 -17.6852 -0.270841 1.74086 -27.9987 8.01657 2.00186 -36.1465 10.0349 3.28207 -23.9572 6.94534 1.47509 -32.6694 6.16169 1.80661 -42.1032 7.63744 2.94307 -27.9737 5.35942 1.33528 -37.1924 -3.45929 -1.167 -47.8537 -4.24034 -1.88257 -31.869 -3.02229 -0.864108 -40.9207 -7.4634 -2.78819 -52.7886 -9.05015 -4.4985 -35.0224 -6.54771 -2.06802 1.35571e-13 6.61675e-06 0 68.397 -3.26195 -7.02704 39.6728 10.7941 29.3518 2.56132e-06 8.53774e-07 0 -4.10661 20.7048 22.2077 -0 0 0 17.5782 0.267599 1.73094 27.8271 7.97195 -1.97786 35.9234 9.98243 -3.24321 23.8109 6.90578 -1.45747 32.4702 6.1285 -1.78613 41.8455 7.5998 -2.90909 27.8035 5.32959 -1.31936 36.9669 -3.44135 1.15282 47.5631 -4.2209 1.86082 31.6758 -3.00591 0.852251 40.6704 -7.42614 2.756 52.4641 -9.01174 4.44757 34.8087 -6.51312 2.04365 -22.8331 -33.715 -35.0491 4.46005 30.6251 -1.22075 -1.70755e-06 -1.28066e-06 0 -8.53774e-07 -4.26887e-07 0 -23.4887 -23.3686 -10.4261 0.502918 10.7049 0.437006 4.66252 -3.94917 -6.41752 0.00224043 -0.802833 0.314035 
